<svg id="svg" version="1.1" width="400" height="400" viewBox="0 0 400 400" xmlns="http://www.w3.org/2000/svg" xmlns:xlink="http://www.w3.org/1999/xlink"><g id="svgg"><path id="path0" d="M311.500 23.499 L 305.200 23.620 305.200 70.210 L 305.200 116.800 307.165 116.800 C 308.245 116.800,310.540 116.503,312.265 116.140 C 313.989 115.777,316.569 115.419,317.998 115.346 C 319.427 115.272,320.657 115.029,320.731 114.806 C 320.806 114.583,321.212 114.400,321.633 114.400 C 322.055 114.400,322.400 114.264,322.400 114.098 C 322.400 113.931,322.920 113.565,323.555 113.284 C 324.190 113.003,325.268 112.239,325.951 111.586 C 326.634 110.934,327.388 110.400,327.628 110.400 C 327.867 110.400,328.769 109.665,329.631 108.767 C 330.494 107.869,331.200 107.245,331.200 107.381 C 331.200 107.516,331.830 106.997,332.600 106.227 C 333.370 105.457,334.000 104.639,334.000 104.410 C 334.000 104.180,334.540 103.428,335.200 102.737 C 335.860 102.046,336.400 101.238,336.400 100.941 C 336.400 100.643,336.580 100.400,336.800 100.400 C 337.020 100.400,337.200 100.166,337.200 99.880 C 337.200 99.144,338.141 97.207,338.500 97.203 C 338.665 97.201,338.800 96.851,338.800 96.424 C 338.800 95.997,338.980 95.536,339.200 95.400 C 339.420 95.264,339.600 94.613,339.600 93.953 C 339.600 93.293,339.761 92.852,339.958 92.974 C 340.155 93.096,340.413 92.522,340.531 91.698 C 340.648 90.874,340.876 89.660,341.036 89.000 C 341.196 88.340,341.399 73.265,341.487 55.500 L 341.647 23.200 329.724 23.289 C 323.166 23.338,314.965 23.433,311.500 23.499 M35.600 58.600 L 35.600 70.800 65.000 70.800 L 94.400 70.800 94.400 105.647 L 94.400 140.493 96.900 140.261 C 98.275 140.134,100.390 139.827,101.600 139.579 C 102.810 139.331,105.039 139.072,106.553 139.002 C 108.067 138.933,109.417 138.724,109.553 138.538 C 109.944 138.004,111.530 137.200,112.195 137.200 C 112.528 137.200,112.800 137.050,112.800 136.868 C 112.800 136.685,113.295 136.281,113.900 135.970 C 114.505 135.660,115.291 135.089,115.647 134.703 C 116.003 134.316,116.501 134.000,116.754 134.000 C 117.364 134.000,122.409 128.942,122.104 128.637 C 121.973 128.507,122.167 128.400,122.533 128.400 C 122.900 128.400,123.200 128.122,123.200 127.783 C 123.200 127.443,123.650 126.680,124.200 126.087 C 124.750 125.493,125.200 124.781,125.200 124.504 C 125.200 124.227,125.380 124.000,125.600 124.000 C 125.820 124.000,126.000 123.766,126.000 123.480 C 126.000 122.744,126.941 120.807,127.300 120.803 C 127.465 120.801,127.600 120.440,127.600 120.000 C 127.600 119.560,127.741 119.200,127.913 119.200 C 128.085 119.200,128.264 118.740,128.310 118.179 C 128.357 117.617,128.576 116.819,128.797 116.405 C 129.019 115.991,129.200 115.191,129.200 114.626 C 129.200 114.062,129.380 113.600,129.600 113.600 C 129.833 113.600,130.000 112.275,130.000 110.424 C 130.000 108.677,130.180 107.136,130.400 107.000 C 130.657 106.841,130.800 100.329,130.800 88.776 L 130.800 70.800 142.600 70.800 L 154.400 70.800 154.400 58.591 L 154.400 46.382 130.500 46.588 C 117.355 46.701,101.304 46.891,94.832 47.009 C 87.008 47.152,82.926 47.086,82.652 46.812 C 82.379 46.539,74.387 46.400,58.920 46.400 L 35.600 46.400 35.600 58.600 M278.400 105.841 C 278.400 106.076,278.899 106.566,280.395 107.800 L 281.365 108.600 280.382 107.327 C 279.469 106.144,278.400 105.343,278.400 105.841 M66.671 128.349 C 66.799 128.840,67.100 129.060,67.457 128.923 C 67.774 128.801,67.982 128.672,67.917 128.637 C 67.853 128.602,67.499 128.344,67.131 128.064 C 66.553 127.623,66.491 127.661,66.671 128.349 " stroke="none" fill="#405757" fill-rule="evenodd"></path><path id="path1" d="M305.600 11.600 L 305.600 23.200 311.800 23.200 L 318.000 23.200 318.000 11.600 L 318.000 0.000 311.800 0.000 L 305.600 0.000 305.600 11.600 M94.667 23.867 C 94.520 24.013,94.400 29.139,94.400 35.256 L 94.400 46.379 88.500 46.504 C 85.255 46.573,87.910 46.623,94.400 46.615 L 106.200 46.600 106.306 35.100 L 106.412 23.600 100.673 23.600 C 97.516 23.600,94.813 23.720,94.667 23.867 M293.379 116.111 C 293.271 116.392,293.232 124.310,293.291 133.706 C 293.399 150.632,293.393 150.788,292.600 150.541 C 292.160 150.404,291.710 150.181,291.600 150.045 C 291.490 149.908,290.860 149.736,290.200 149.661 C 289.540 149.586,288.940 149.361,288.867 149.162 C 288.793 148.963,288.493 148.800,288.200 148.800 C 287.907 148.800,287.607 148.626,287.533 148.413 C 287.460 148.200,286.815 147.981,286.100 147.928 C 285.385 147.874,284.800 147.688,284.800 147.515 C 284.800 147.342,284.440 147.200,284.000 147.200 C 283.560 147.200,283.200 147.020,283.200 146.800 C 283.200 146.580,282.671 146.400,282.024 146.400 C 281.377 146.400,280.736 146.220,280.600 146.000 C 280.464 145.780,279.633 145.600,278.753 145.600 C 277.873 145.600,277.246 145.449,277.360 145.264 C 277.474 145.080,276.936 144.905,276.164 144.876 C 275.392 144.847,274.558 144.698,274.311 144.545 C 273.557 144.079,270.738 143.560,268.032 143.389 C 266.620 143.300,265.360 143.071,265.232 142.879 C 265.104 142.687,264.010 142.566,262.800 142.608 C 261.590 142.651,260.399 142.530,260.153 142.338 C 259.713 141.996,236.082 141.784,235.747 142.120 C 235.652 142.215,235.031 142.229,234.367 142.152 C 233.703 142.074,233.248 142.154,233.356 142.329 C 233.464 142.504,232.393 142.612,230.976 142.570 C 229.559 142.529,228.400 142.653,228.400 142.847 C 228.400 143.041,228.265 143.179,228.100 143.153 C 227.935 143.127,227.710 143.139,227.600 143.180 C 227.490 143.221,226.529 143.318,225.465 143.395 C 223.095 143.568,223.366 141.674,223.600 156.400 L 223.800 169.000 224.724 169.129 C 225.232 169.200,225.883 169.063,226.171 168.824 C 226.459 168.585,227.420 168.347,228.307 168.295 C 229.193 168.243,229.836 168.065,229.736 167.900 C 229.570 167.628,233.001 167.393,234.357 167.583 C 234.664 167.626,235.029 167.477,235.169 167.251 C 235.308 167.025,237.158 166.790,239.279 166.729 C 241.774 166.658,243.049 166.474,242.891 166.209 C 242.756 165.984,242.980 166.070,243.388 166.400 C 243.954 166.858,244.170 166.881,244.298 166.500 C 244.485 165.947,245.600 165.804,245.600 166.333 C 245.600 166.517,245.862 166.667,246.182 166.667 C 246.503 166.667,246.679 166.528,246.574 166.358 C 246.469 166.188,246.747 166.076,247.191 166.109 C 247.636 166.143,248.000 166.312,248.000 166.485 C 248.000 166.658,248.641 166.800,249.424 166.800 C 250.271 166.800,250.747 166.638,250.600 166.400 C 250.464 166.180,250.633 166.000,250.976 166.000 C 251.319 166.000,251.600 166.153,251.600 166.340 C 251.600 166.527,253.256 166.710,255.281 166.747 C 257.305 166.784,259.064 166.980,259.189 167.183 C 259.315 167.386,260.538 167.592,261.909 167.641 C 263.279 167.691,264.400 167.858,264.400 168.014 C 264.400 168.169,264.715 168.295,265.100 168.293 C 267.201 168.285,268.023 168.439,267.800 168.800 C 267.648 169.046,268.318 169.200,269.543 169.200 C 270.638 169.200,271.593 169.378,271.667 169.597 C 271.740 169.815,272.295 170.034,272.900 170.084 C 273.505 170.134,274.000 170.292,274.000 170.435 C 274.000 170.578,274.315 170.695,274.700 170.693 C 276.356 170.687,276.833 170.823,276.580 171.233 C 276.420 171.491,276.612 171.633,277.056 171.586 C 278.432 171.441,279.249 171.597,279.023 171.963 C 278.900 172.162,279.187 172.224,279.662 172.100 C 280.253 171.945,280.435 172.020,280.239 172.337 C 279.959 172.789,280.275 172.912,281.700 172.907 C 282.085 172.905,282.400 173.061,282.400 173.252 C 282.400 173.443,282.946 173.600,283.613 173.600 C 284.284 173.600,284.921 173.850,285.040 174.161 C 285.159 174.469,285.878 174.838,286.639 174.981 C 287.400 175.124,287.917 175.411,287.788 175.620 C 287.658 175.829,287.888 176.000,288.297 176.000 C 289.209 176.000,291.193 176.889,291.197 177.300 C 291.199 177.465,291.541 177.600,291.957 177.600 C 292.374 177.600,292.822 177.881,292.954 178.223 C 293.263 179.028,293.290 262.331,292.981 262.830 C 292.853 263.037,292.862 263.566,293.001 264.004 C 293.140 264.442,293.095 264.800,292.900 264.800 C 292.705 264.800,292.546 265.745,292.546 266.900 C 292.546 268.055,292.411 269.450,292.247 270.000 C 292.021 270.756,292.050 270.854,292.368 270.400 C 292.599 270.070,292.785 269.980,292.781 270.200 C 292.778 270.420,292.535 270.915,292.243 271.300 C 291.950 271.686,291.797 272.451,291.902 273.000 C 292.007 273.550,291.937 274.000,291.747 274.001 C 291.556 274.001,291.347 274.764,291.283 275.697 C 291.219 276.630,290.994 277.566,290.783 277.777 C 290.572 277.988,290.400 278.664,290.400 279.280 C 290.400 279.896,290.220 280.400,290.000 280.400 C 289.780 280.400,289.600 280.940,289.600 281.600 C 289.600 282.260,289.420 282.800,289.200 282.800 C 288.980 282.800,288.797 283.295,288.794 283.900 C 288.789 284.757,288.702 284.868,288.400 284.400 C 288.105 283.943,288.011 284.102,288.006 285.067 C 288.003 285.763,287.775 286.424,287.500 286.535 C 287.138 286.681,287.155 286.746,287.561 286.768 C 287.945 286.790,287.844 287.041,287.245 287.561 C 286.616 288.107,286.513 288.381,286.884 288.530 C 287.279 288.688,287.283 288.744,286.900 288.768 C 286.625 288.786,286.400 289.070,286.400 289.400 C 286.400 289.730,286.220 290.000,286.000 290.000 C 285.780 290.000,285.600 290.450,285.600 291.000 C 285.600 291.550,285.420 292.000,285.200 292.000 C 284.980 292.000,284.800 292.270,284.800 292.600 C 284.800 292.930,284.620 293.200,284.400 293.200 C 284.180 293.200,284.000 293.405,284.000 293.656 C 284.000 293.907,283.728 294.312,283.395 294.556 C 283.063 294.800,282.707 295.450,282.604 296.000 C 282.501 296.550,282.061 297.293,281.626 297.650 C 281.190 298.008,280.942 298.409,281.074 298.541 C 281.206 298.673,281.020 298.894,280.660 299.032 C 280.299 299.171,280.104 299.445,280.226 299.642 C 280.348 299.839,280.260 300.000,280.032 300.000 C 279.803 300.000,279.249 300.720,278.800 301.600 C 278.351 302.480,277.807 303.200,277.592 303.200 C 277.376 303.200,277.200 303.470,277.200 303.800 C 277.200 304.130,276.930 304.400,276.600 304.400 C 276.270 304.400,276.038 304.535,276.085 304.700 C 276.201 305.112,275.081 306.800,274.691 306.800 C 274.517 306.800,273.721 307.512,272.920 308.382 C 272.120 309.252,271.288 309.854,271.071 309.720 C 270.854 309.586,270.789 309.658,270.926 309.881 C 271.185 310.299,268.032 313.077,267.500 312.900 C 267.335 312.845,267.200 312.980,267.200 313.200 C 267.200 313.420,266.930 313.600,266.600 313.600 C 266.270 313.600,266.000 313.870,266.000 314.200 C 266.000 314.530,265.812 314.800,265.582 314.800 C 265.352 314.800,264.722 315.242,264.182 315.782 C 263.642 316.322,263.200 316.578,263.200 316.351 C 263.200 316.124,262.485 316.639,261.612 317.495 C 260.738 318.352,259.523 319.287,258.912 319.573 C 258.300 319.859,257.487 320.252,257.105 320.447 C 256.723 320.641,256.216 320.800,255.977 320.800 C 255.738 320.800,255.271 321.072,254.939 321.404 C 254.607 321.736,254.170 321.905,253.968 321.780 C 253.765 321.655,253.600 321.743,253.600 321.976 C 253.600 322.209,253.319 322.400,252.976 322.400 C 252.633 322.400,252.464 322.580,252.600 322.800 C 252.740 323.027,252.404 323.200,251.824 323.200 C 251.261 323.200,250.800 323.380,250.800 323.600 C 250.800 323.820,250.438 324.000,249.995 324.000 C 249.552 324.000,248.787 324.208,248.295 324.462 C 246.014 325.641,245.907 325.676,246.217 325.130 C 246.459 324.704,246.412 324.698,245.979 325.100 C 245.682 325.375,245.105 325.600,244.696 325.600 C 244.265 325.600,244.065 325.782,244.220 326.033 C 244.380 326.291,244.188 326.433,243.744 326.386 C 242.446 326.249,241.547 326.390,241.739 326.700 C 241.841 326.865,241.266 326.979,240.462 326.954 C 239.658 326.928,238.888 327.081,238.752 327.294 C 238.615 327.506,237.814 327.680,236.973 327.680 C 236.131 327.680,234.989 327.852,234.435 328.063 C 233.881 328.273,232.207 328.457,230.714 328.471 C 229.221 328.485,228.000 328.655,228.000 328.848 C 228.000 329.042,227.809 329.200,227.576 329.200 C 227.343 329.200,227.264 329.020,227.400 328.800 C 227.536 328.580,227.457 328.400,227.224 328.400 C 226.991 328.400,226.800 328.580,226.800 328.800 C 226.800 329.020,226.249 329.200,225.576 329.200 C 224.903 329.200,224.445 329.050,224.559 328.867 C 224.672 328.683,224.503 328.533,224.182 328.533 C 223.685 328.533,223.600 330.363,223.600 341.084 L 223.600 353.635 229.300 353.567 C 232.435 353.529,235.100 353.342,235.222 353.152 C 235.344 352.961,236.546 352.766,237.893 352.718 C 239.241 352.670,240.255 352.489,240.148 352.316 C 240.041 352.142,240.728 351.973,241.676 351.939 C 243.709 351.867,243.961 351.826,244.957 351.396 C 245.374 351.217,246.130 351.048,246.638 351.021 C 247.146 350.994,247.690 350.843,247.847 350.686 C 248.005 350.529,248.688 350.397,249.367 350.394 C 250.310 350.389,250.459 350.297,250.000 350.000 C 249.553 349.711,249.776 349.611,250.876 349.606 C 251.688 349.603,252.464 349.420,252.600 349.200 C 252.736 348.980,253.366 348.800,254.000 348.800 C 254.634 348.800,255.264 348.620,255.400 348.400 C 255.536 348.180,255.982 348.000,256.390 348.000 C 256.799 348.000,257.193 347.822,257.267 347.603 C 257.340 347.385,257.895 347.166,258.500 347.116 C 259.105 347.066,259.600 346.885,259.600 346.713 C 259.600 346.541,259.945 346.400,260.367 346.400 C 260.788 346.400,261.199 346.203,261.279 345.963 C 261.359 345.723,261.897 345.498,262.474 345.463 C 263.051 345.428,263.458 345.294,263.378 345.165 C 263.299 345.036,263.946 344.550,264.817 344.085 C 265.813 343.554,266.400 343.414,266.400 343.709 C 266.400 343.967,266.680 343.778,267.023 343.289 C 267.365 342.800,268.025 342.400,268.489 342.400 C 268.954 342.400,269.216 342.283,269.073 342.140 C 268.930 341.996,269.125 341.642,269.506 341.352 C 270.391 340.680,270.936 340.653,270.547 341.300 C 270.307 341.699,270.371 341.700,270.860 341.303 C 271.197 341.030,271.607 340.940,271.770 341.103 C 271.933 341.267,272.007 341.130,271.933 340.800 C 271.860 340.470,272.025 340.245,272.300 340.300 C 272.575 340.355,272.803 340.085,272.806 339.700 C 272.811 339.188,272.899 339.137,273.136 339.511 C 273.382 339.898,273.713 339.787,274.505 339.053 C 275.080 338.520,275.652 338.185,275.775 338.309 C 275.899 338.432,276.000 338.341,276.000 338.106 C 276.000 337.871,276.540 337.490,277.200 337.260 C 277.860 337.030,278.400 336.584,278.400 336.269 C 278.400 335.955,278.940 335.473,279.600 335.200 C 280.260 334.927,280.800 334.534,280.800 334.328 C 280.800 334.122,280.950 334.046,281.134 334.159 C 281.317 334.272,282.418 333.473,283.579 332.383 C 284.741 331.292,285.820 330.400,285.978 330.400 C 286.136 330.400,286.502 329.956,286.793 329.414 C 287.083 328.871,287.446 328.505,287.600 328.600 C 287.754 328.695,288.114 328.335,288.400 327.800 C 288.686 327.265,289.073 326.922,289.260 327.037 C 289.447 327.153,289.600 327.046,289.600 326.800 C 289.600 326.554,289.780 326.464,290.000 326.600 C 290.220 326.736,290.400 326.694,290.400 326.507 C 290.400 325.931,293.777 322.400,294.328 322.400 C 294.614 322.400,294.728 322.207,294.582 321.971 C 294.436 321.735,295.132 320.761,296.128 319.807 C 297.124 318.853,297.833 317.966,297.703 317.836 C 297.573 317.706,297.767 317.600,298.133 317.600 C 298.500 317.600,298.800 317.338,298.800 317.018 C 298.800 316.109,300.698 313.510,300.934 314.096 C 301.045 314.373,301.151 314.094,301.168 313.476 C 301.186 312.835,301.372 312.459,301.600 312.600 C 301.820 312.736,302.000 312.517,302.000 312.113 C 302.000 311.709,302.504 310.826,303.121 310.151 C 303.737 309.476,304.187 308.760,304.120 308.559 C 304.053 308.358,304.414 307.745,304.922 307.197 C 305.431 306.649,305.906 306.020,305.978 305.800 C 306.427 304.424,306.976 303.659,307.358 303.877 C 307.601 304.015,307.678 303.992,307.528 303.826 C 307.379 303.659,307.604 302.905,308.028 302.150 C 308.453 301.394,308.800 300.331,308.800 299.788 C 308.800 299.245,308.980 298.800,309.200 298.800 C 309.420 298.800,309.600 298.350,309.600 297.800 C 309.600 297.250,309.744 296.800,309.920 296.800 C 310.095 296.800,310.467 296.125,310.746 295.300 C 311.354 293.500,312.104 291.874,312.453 291.600 C 312.593 291.490,312.797 290.680,312.907 289.800 C 313.148 287.882,313.557 286.800,314.043 286.800 C 314.239 286.800,314.400 286.069,314.400 285.176 C 314.400 284.283,314.535 283.636,314.700 283.738 C 314.865 283.839,315.052 283.175,315.115 282.261 C 315.179 281.348,315.404 280.540,315.615 280.467 C 315.827 280.393,316.000 279.550,316.000 278.593 C 316.000 277.635,316.177 276.387,316.393 275.819 C 316.609 275.250,316.817 273.895,316.856 272.808 C 316.894 271.720,317.076 270.924,317.260 271.037 C 317.444 271.151,317.602 270.829,317.611 270.322 C 317.620 269.815,317.716 254.370,317.826 236.000 C 317.935 217.630,318.064 202.072,318.112 201.426 L 318.200 200.253 319.503 201.560 C 320.219 202.279,320.709 203.024,320.590 203.216 C 320.472 203.408,320.830 203.863,321.387 204.228 C 321.944 204.593,322.403 205.276,322.406 205.746 C 322.411 206.444,322.483 206.490,322.800 206.000 C 323.183 205.407,323.411 205.865,323.247 206.900 C 323.221 207.065,323.380 207.200,323.600 207.200 C 323.820 207.200,324.000 207.462,324.000 207.782 C 324.000 208.102,324.460 208.823,325.022 209.385 C 325.583 209.947,325.933 210.585,325.798 210.803 C 325.663 211.022,325.743 211.200,325.976 211.200 C 326.209 211.200,326.355 211.425,326.300 211.700 C 326.245 211.975,326.407 212.161,326.659 212.114 C 326.941 212.061,327.032 212.355,326.896 212.876 C 326.766 213.375,326.835 213.626,327.064 213.484 C 327.627 213.136,328.846 215.394,328.564 216.264 C 328.365 216.875,328.398 216.898,328.756 216.400 C 329.099 215.923,329.189 216.072,329.194 217.124 C 329.197 217.903,329.364 218.346,329.600 218.200 C 329.827 218.060,330.000 218.396,330.000 218.976 C 330.000 219.539,330.139 220.000,330.309 220.000 C 330.764 220.000,331.959 222.402,332.249 223.900 C 332.387 224.615,332.658 225.200,332.850 225.200 C 333.043 225.200,333.200 225.549,333.200 225.976 C 333.200 226.403,333.380 226.864,333.600 227.000 C 333.820 227.136,334.000 227.687,334.000 228.224 C 334.000 228.761,334.225 229.203,334.500 229.206 C 334.874 229.211,334.866 229.297,334.466 229.550 C 334.036 229.823,334.054 229.935,334.560 230.129 C 334.956 230.281,335.090 230.620,334.925 231.050 C 334.748 231.511,334.815 231.638,335.132 231.442 C 335.539 231.191,335.852 232.806,335.647 234.100 C 335.621 234.265,335.780 234.400,336.000 234.400 C 336.220 234.400,336.400 234.850,336.400 235.400 C 336.400 235.950,336.580 236.400,336.800 236.400 C 337.020 236.400,337.200 236.681,337.200 237.024 C 337.200 237.406,337.007 237.538,336.700 237.365 C 336.300 237.139,336.300 237.190,336.700 237.621 C 336.975 237.918,337.203 238.799,337.206 239.580 C 337.211 240.644,337.309 240.850,337.600 240.400 C 337.873 239.978,337.990 240.547,337.994 242.324 C 337.998 243.903,338.150 244.755,338.400 244.600 C 338.718 244.403,338.984 248.224,338.766 249.855 C 338.747 249.996,338.919 250.226,339.148 250.368 C 339.378 250.510,339.605 252.349,339.655 254.491 C 339.712 256.866,339.897 258.264,340.135 258.116 C 340.368 257.973,340.392 258.090,340.195 258.408 C 339.779 259.082,339.700 261.186,340.100 260.938 C 340.265 260.836,340.400 260.928,340.400 261.143 C 340.400 261.358,340.175 261.609,339.900 261.702 C 339.519 261.830,339.543 262.044,340.000 262.600 C 340.457 263.156,340.481 263.370,340.100 263.498 C 339.825 263.591,339.600 263.997,339.600 264.400 C 339.600 264.803,339.825 265.224,340.100 265.335 C 340.500 265.496,340.500 265.543,340.100 265.568 C 339.734 265.592,339.600 266.724,339.600 269.800 C 339.600 272.333,339.441 274.000,339.200 274.000 C 338.980 274.000,338.800 274.954,338.800 276.120 C 338.800 277.286,338.575 278.482,338.300 278.779 C 337.900 279.210,337.900 279.261,338.300 279.035 C 338.890 278.702,338.986 279.438,338.400 279.800 C 338.180 279.936,338.000 280.847,338.000 281.824 C 338.000 282.801,337.820 283.600,337.600 283.600 C 337.380 283.600,337.200 284.322,337.200 285.205 C 337.200 286.088,337.034 287.123,336.830 287.505 C 336.321 288.463,335.400 292.095,335.522 292.670 C 335.577 292.928,335.436 293.254,335.211 293.393 C 334.985 293.533,334.800 294.007,334.800 294.447 C 334.800 294.887,334.620 295.136,334.400 295.000 C 334.162 294.853,334.000 295.329,334.000 296.176 C 334.000 296.959,333.820 297.600,333.600 297.600 C 333.380 297.600,333.197 298.275,333.194 299.100 C 333.189 300.216,333.088 300.446,332.800 300.000 C 332.499 299.534,332.411 299.651,332.406 300.524 C 332.403 301.170,332.230 301.542,332.000 301.400 C 331.767 301.256,331.600 301.663,331.600 302.376 C 331.600 303.049,331.420 303.600,331.200 303.600 C 330.980 303.600,330.800 304.140,330.800 304.800 C 330.800 305.460,330.627 306.000,330.416 306.000 C 330.205 306.000,329.816 306.720,329.553 307.600 C 329.289 308.480,328.911 309.200,328.713 309.200 C 328.515 309.200,328.454 309.364,328.578 309.564 C 328.701 309.764,328.687 310.229,328.546 310.597 C 328.341 311.131,328.220 311.159,327.950 310.734 C 327.706 310.348,327.611 310.444,327.606 311.076 C 327.603 311.558,327.420 312.064,327.200 312.200 C 326.980 312.336,326.800 312.807,326.800 313.247 C 326.800 313.756,326.630 313.942,326.332 313.758 C 326.009 313.558,325.951 313.695,326.146 314.202 C 326.302 314.610,326.232 315.057,325.987 315.208 C 325.745 315.358,325.487 315.732,325.415 316.040 C 325.038 317.635,324.673 318.369,324.355 318.172 C 324.160 318.051,324.000 318.233,324.000 318.576 C 324.000 318.919,323.820 319.200,323.600 319.200 C 323.380 319.200,323.200 319.481,323.200 319.824 C 323.200 320.167,323.058 320.360,322.885 320.252 C 322.712 320.145,322.532 320.519,322.485 321.082 C 322.438 321.645,322.040 322.418,321.600 322.800 C 321.160 323.182,320.800 323.698,320.800 323.947 C 320.800 324.196,320.654 324.400,320.475 324.400 C 320.296 324.400,319.902 325.031,319.599 325.802 C 319.225 326.756,318.948 327.043,318.731 326.702 C 318.503 326.342,318.411 326.399,318.406 326.900 C 318.403 327.285,318.209 327.600,317.976 327.600 C 317.743 327.600,317.664 327.780,317.800 328.000 C 317.936 328.220,317.722 328.403,317.324 328.406 C 316.823 328.410,316.752 328.509,317.091 328.724 C 317.452 328.954,317.373 329.187,316.791 329.606 C 316.356 329.920,316.000 330.417,316.000 330.712 C 316.000 331.006,315.820 331.136,315.600 331.000 C 315.380 330.864,315.200 331.134,315.200 331.600 C 315.200 332.066,315.020 332.336,314.800 332.200 C 314.580 332.064,314.400 332.131,314.400 332.349 C 314.400 332.568,314.016 332.868,313.547 333.017 C 312.950 333.206,312.842 333.379,313.188 333.593 C 313.543 333.812,313.421 334.080,312.752 334.549 C 312.240 334.907,311.965 335.200,312.140 335.200 C 312.314 335.200,312.187 335.470,311.857 335.800 C 311.527 336.130,311.079 336.400,310.862 336.400 C 310.645 336.400,310.228 336.940,309.936 337.600 C 309.644 338.260,309.256 338.800,309.074 338.800 C 308.519 338.800,307.600 339.905,307.600 340.571 C 307.600 341.137,307.135 341.379,306.300 341.247 C 306.135 341.221,306.045 341.425,306.100 341.700 C 306.155 341.975,305.975 342.155,305.700 342.100 C 305.425 342.045,305.221 342.135,305.247 342.300 C 305.373 343.097,305.160 343.622,304.800 343.400 C 304.580 343.264,304.400 343.343,304.400 343.576 C 304.400 343.809,304.183 343.955,303.918 343.900 C 303.653 343.845,303.428 344.016,303.418 344.280 C 303.408 344.544,303.149 344.994,302.841 345.280 C 302.430 345.663,302.357 345.669,302.565 345.300 C 302.942 344.632,302.479 344.664,301.790 345.352 C 301.487 345.656,301.350 346.016,301.486 346.152 C 301.622 346.289,301.433 346.400,301.067 346.400 C 300.660 346.400,300.400 346.722,300.400 347.224 C 300.400 347.677,300.235 347.945,300.032 347.820 C 299.830 347.695,299.393 347.864,299.061 348.196 C 298.729 348.528,298.234 348.800,297.962 348.800 C 297.690 348.800,297.583 348.917,297.726 349.059 C 298.076 349.409,296.389 350.841,295.948 350.568 C 295.757 350.450,295.600 350.633,295.600 350.976 C 295.600 351.319,295.420 351.600,295.200 351.600 C 294.980 351.600,294.440 351.960,294.000 352.400 C 293.560 352.840,293.200 353.112,293.200 353.004 C 293.200 352.896,292.660 353.372,292.000 354.063 C 291.340 354.754,290.800 355.193,290.800 355.039 C 290.800 354.885,290.198 355.218,289.462 355.780 C 288.726 356.341,287.916 356.800,287.662 356.800 C 287.408 356.800,287.200 356.980,287.200 357.200 C 287.200 357.420,286.829 357.600,286.376 357.600 C 285.923 357.600,285.664 357.780,285.800 358.000 C 285.940 358.227,285.604 358.400,285.024 358.400 C 284.422 358.400,284.000 358.627,284.000 358.950 C 284.000 359.253,283.485 359.603,282.856 359.729 C 282.227 359.855,281.166 360.417,280.498 360.979 C 279.831 361.540,279.106 362.000,278.888 362.000 C 278.178 362.000,276.405 363.072,276.673 363.339 C 276.816 363.483,276.554 363.600,276.090 363.600 C 275.627 363.600,275.136 363.780,275.000 364.000 C 274.864 364.220,274.393 364.400,273.953 364.400 C 273.513 364.400,273.264 364.580,273.400 364.800 C 273.536 365.020,273.307 365.200,272.890 365.200 C 272.474 365.200,272.008 365.325,271.855 365.478 C 271.585 365.749,270.699 366.002,269.718 366.090 C 269.452 366.114,269.328 366.283,269.441 366.467 C 269.555 366.650,269.187 366.800,268.624 366.800 C 268.061 366.800,267.600 366.980,267.600 367.200 C 267.600 367.420,267.209 367.600,266.731 367.600 C 266.254 367.600,265.526 367.905,265.114 368.278 C 264.702 368.651,263.975 369.016,263.500 369.088 C 263.024 369.161,262.492 369.441,262.317 369.710 C 262.076 370.083,261.906 370.057,261.606 369.600 C 261.343 369.199,261.210 369.166,261.206 369.500 C 261.203 369.795,260.667 370.003,259.900 370.006 C 258.914 370.011,258.745 370.106,259.200 370.400 C 259.733 370.745,257.583 371.066,256.270 370.837 C 256.089 370.806,256.055 370.965,256.194 371.190 C 256.345 371.434,255.978 371.600,255.290 371.600 C 254.654 371.600,254.005 371.729,253.847 371.886 C 253.354 372.379,249.875 373.164,248.100 373.182 C 247.165 373.192,246.400 373.380,246.400 373.600 C 246.400 373.820,245.770 374.000,245.000 374.000 C 244.230 374.000,243.600 374.180,243.600 374.400 C 243.600 374.620,242.621 374.800,241.424 374.800 C 240.227 374.800,239.131 374.989,238.988 375.219 C 238.814 375.501,238.522 375.468,238.099 375.119 C 237.601 374.708,237.435 374.704,237.302 375.100 C 237.209 375.375,236.958 375.600,236.743 375.600 C 236.528 375.600,236.481 375.392,236.638 375.138 C 236.820 374.844,236.747 374.785,236.439 374.976 C 235.927 375.292,231.543 375.658,227.200 375.747 C 223.325 375.826,223.600 374.870,223.600 388.278 L 223.600 400.109 232.900 399.852 C 243.692 399.555,243.334 399.578,243.620 399.146 C 243.740 398.963,245.049 398.787,246.528 398.755 C 248.007 398.723,249.314 398.540,249.432 398.348 C 249.550 398.157,250.457 398.000,251.447 398.000 C 252.545 398.000,253.151 397.844,253.000 397.600 C 252.849 397.356,253.455 397.200,254.553 397.200 C 255.543 397.200,256.464 397.020,256.600 396.800 C 256.736 396.580,257.467 396.400,258.224 396.400 C 258.981 396.400,259.600 396.220,259.600 396.000 C 259.600 395.780,260.020 395.600,260.533 395.600 C 261.047 395.600,261.593 395.473,261.748 395.318 C 261.903 395.163,262.518 394.979,263.115 394.909 C 264.131 394.790,265.257 394.387,266.895 393.553 C 267.277 393.359,268.031 393.200,268.571 393.200 C 269.111 393.200,269.664 393.020,269.800 392.800 C 269.936 392.580,270.487 392.400,271.024 392.400 C 271.561 392.400,272.000 392.220,272.000 392.000 C 272.000 391.780,272.450 391.600,273.000 391.600 C 273.550 391.600,274.000 391.426,274.000 391.213 C 274.000 390.999,274.272 390.930,274.605 391.057 C 274.938 391.185,275.502 391.047,275.859 390.751 C 276.216 390.454,276.709 390.200,276.954 390.184 C 277.511 390.149,279.171 389.459,281.940 388.109 C 283.117 387.536,284.332 387.067,284.640 387.067 C 284.948 387.067,285.200 386.917,285.200 386.733 C 285.200 386.550,285.550 386.400,285.977 386.400 C 286.405 386.400,286.990 386.085,287.277 385.700 C 287.565 385.315,288.250 384.938,288.800 384.862 C 289.350 384.786,289.860 384.561,289.933 384.362 C 290.007 384.163,290.239 384.000,290.450 384.000 C 290.661 384.000,291.220 383.640,291.692 383.200 C 292.164 382.760,292.787 382.400,293.075 382.400 C 293.364 382.400,293.600 382.220,293.600 382.000 C 293.600 381.780,293.883 381.600,294.228 381.600 C 294.881 381.600,298.500 379.289,298.733 378.723 C 298.807 378.545,299.172 378.400,299.545 378.400 C 299.918 378.400,300.483 378.040,300.800 377.600 C 301.117 377.160,301.597 376.800,301.866 376.800 C 302.135 376.800,302.620 376.420,302.945 375.957 C 303.270 375.493,303.725 375.230,303.956 375.373 C 304.188 375.516,304.774 375.175,305.261 374.616 C 305.747 374.057,306.382 373.600,306.672 373.600 C 306.962 373.600,307.200 373.409,307.200 373.176 C 307.200 372.943,307.380 372.864,307.600 373.000 C 307.820 373.136,308.000 372.972,308.000 372.636 C 308.000 372.300,308.228 372.112,308.506 372.219 C 308.784 372.326,309.609 371.780,310.338 371.007 C 311.068 370.233,311.920 369.600,312.232 369.600 C 312.545 369.600,312.800 369.330,312.800 369.000 C 312.800 368.670,313.025 368.445,313.300 368.500 C 313.575 368.555,313.755 368.375,313.700 368.100 C 313.645 367.825,313.870 367.600,314.200 367.600 C 314.530 367.600,314.800 367.420,314.800 367.200 C 314.800 366.980,314.998 366.800,315.240 366.800 C 315.481 366.800,316.192 366.251,316.818 365.580 C 317.445 364.909,318.057 364.369,318.179 364.380 C 318.995 364.453,319.200 364.323,319.200 363.733 C 319.200 363.367,319.311 363.178,319.448 363.314 C 319.759 363.626,320.800 362.614,320.800 362.000 C 320.800 361.330,321.843 360.400,322.595 360.400 C 322.954 360.400,323.153 360.247,323.037 360.060 C 322.921 359.873,323.621 359.029,324.591 358.186 C 325.562 357.342,326.262 356.501,326.148 356.316 C 326.034 356.131,326.179 356.030,326.470 356.090 C 326.762 356.151,326.951 355.962,326.890 355.670 C 326.830 355.379,326.965 355.255,327.191 355.394 C 327.417 355.534,327.777 355.187,327.991 354.624 C 328.205 354.061,328.565 353.600,328.790 353.600 C 329.016 353.600,329.201 353.375,329.201 353.100 C 329.202 352.825,329.709 352.261,330.327 351.846 C 330.946 351.432,331.680 350.577,331.960 349.946 C 332.239 349.316,332.711 348.800,333.010 348.800 C 333.308 348.800,333.681 348.592,333.838 348.338 C 334.030 348.027,333.940 347.983,333.562 348.203 C 333.253 348.382,333.382 348.095,333.849 347.565 C 334.316 347.034,334.797 346.330,334.918 346.000 C 335.070 345.582,335.146 345.561,335.168 345.929 C 335.204 346.531,336.400 345.541,336.400 344.908 C 336.400 344.054,337.466 342.424,338.140 342.247 C 338.547 342.141,338.768 341.873,338.632 341.651 C 338.495 341.430,338.882 340.765,339.491 340.174 C 340.101 339.582,340.330 339.225,340.000 339.379 C 339.497 339.614,339.500 339.574,340.019 339.130 C 340.359 338.838,340.875 338.017,341.165 337.305 C 341.455 336.593,341.852 336.109,342.046 336.229 C 342.241 336.349,342.400 336.156,342.400 335.800 C 342.400 335.444,342.580 335.264,342.800 335.400 C 343.027 335.540,343.200 335.204,343.200 334.624 C 343.200 334.061,343.380 333.600,343.600 333.600 C 343.820 333.600,344.000 333.358,344.000 333.062 C 344.000 332.766,344.360 332.198,344.800 331.800 C 345.240 331.402,345.600 330.891,345.600 330.664 C 345.600 330.437,346.005 329.806,346.500 329.261 C 346.995 328.717,347.130 328.425,346.800 328.612 C 346.318 328.886,346.290 328.840,346.657 328.377 C 347.523 327.285,348.800 324.775,348.800 324.164 C 348.800 323.828,348.967 323.656,349.171 323.782 C 349.375 323.908,349.667 323.604,349.819 323.106 C 349.970 322.608,350.331 321.930,350.619 321.600 C 351.162 320.978,351.196 320.868,351.206 319.700 C 351.211 319.095,351.271 319.082,351.641 319.600 C 351.985 320.082,352.031 320.023,351.872 319.300 C 351.764 318.805,351.849 318.400,352.061 318.400 C 352.273 318.400,352.335 318.219,352.198 317.997 C 352.061 317.776,352.321 317.073,352.775 316.436 C 353.229 315.798,353.600 315.079,353.600 314.838 C 353.600 314.597,353.791 314.400,354.024 314.400 C 354.257 314.400,354.368 314.265,354.271 314.100 C 354.173 313.935,354.280 313.350,354.506 312.800 C 354.733 312.250,354.972 311.533,355.038 311.207 C 355.103 310.881,355.346 310.551,355.578 310.474 C 355.810 310.397,356.000 310.158,356.000 309.943 C 356.000 309.728,355.775 309.682,355.500 309.841 C 355.225 309.999,355.382 309.695,355.848 309.165 C 356.314 308.634,356.719 307.885,356.748 307.500 C 356.867 305.893,356.951 305.600,357.290 305.600 C 357.487 305.600,357.524 305.400,357.372 305.155 C 357.221 304.911,357.346 304.553,357.649 304.361 C 358.114 304.067,358.113 304.011,357.638 304.006 C 357.174 304.001,357.183 303.878,357.688 303.300 C 358.025 302.915,358.249 302.284,358.185 301.898 C 358.122 301.512,358.234 301.298,358.435 301.422 C 358.636 301.546,358.803 300.782,358.806 299.724 C 358.811 298.334,358.920 297.967,359.200 298.400 C 359.488 298.846,359.589 298.616,359.594 297.500 C 359.597 296.675,359.753 296.000,359.939 296.000 C 360.126 296.000,360.315 295.415,360.361 294.700 C 360.499 292.507,360.523 292.400,360.867 292.400 C 361.050 292.400,361.200 291.500,361.200 290.400 C 361.200 289.300,361.380 288.400,361.600 288.400 C 361.820 288.400,362.000 287.680,362.000 286.800 C 362.000 285.920,362.146 285.200,362.325 285.200 C 362.504 285.200,362.694 284.351,362.748 283.313 C 362.802 282.276,362.990 281.241,363.167 281.013 C 363.343 280.786,363.524 279.434,363.568 278.009 C 363.612 276.583,363.794 275.323,363.971 275.209 C 364.524 274.850,364.531 250.000,363.977 250.000 C 363.640 250.000,363.662 249.807,364.051 249.335 C 364.479 248.816,364.490 248.633,364.100 248.502 C 363.770 248.391,363.600 247.468,363.600 245.790 C 363.600 244.392,363.420 243.136,363.200 243.000 C 362.980 242.864,362.800 241.853,362.800 240.753 C 362.800 239.650,362.636 238.854,362.435 238.978 C 361.998 239.249,362.082 238.424,362.573 237.638 C 362.813 237.253,362.778 237.166,362.462 237.362 C 362.038 237.624,361.768 236.055,361.970 234.500 C 362.006 234.225,361.847 234.000,361.618 234.000 C 361.388 234.000,361.200 233.370,361.200 232.600 C 361.200 231.830,361.020 231.200,360.800 231.200 C 360.580 231.200,360.400 230.570,360.400 229.800 C 360.400 229.030,360.220 228.400,360.000 228.400 C 359.780 228.400,359.600 227.896,359.600 227.280 C 359.600 226.664,359.429 225.989,359.219 225.779 C 359.010 225.570,358.793 224.724,358.737 223.899 C 358.682 223.075,358.529 222.400,358.398 222.400 C 358.267 222.400,357.937 221.320,357.664 220.000 C 357.392 218.680,357.035 217.600,356.872 217.600 C 356.427 217.600,355.588 215.143,355.874 214.680 C 356.016 214.451,355.924 214.400,355.662 214.562 C 355.256 214.813,354.979 213.800,355.153 212.700 C 355.179 212.535,355.020 212.400,354.800 212.400 C 354.580 212.400,354.400 212.190,354.400 211.934 C 354.400 211.237,353.088 208.400,352.766 208.400 C 352.612 208.400,352.378 208.121,352.247 207.779 C 352.086 207.358,352.168 207.254,352.505 207.456 C 352.992 207.749,352.318 206.753,351.296 205.669 C 351.019 205.376,350.912 204.943,351.057 204.707 C 351.203 204.471,351.069 204.081,350.760 203.839 C 350.451 203.598,349.839 202.680,349.399 201.800 C 348.960 200.920,348.188 199.683,347.685 199.052 C 347.182 198.420,346.516 197.295,346.206 196.552 C 345.895 195.808,345.452 195.200,345.220 195.200 C 344.989 195.200,344.800 194.928,344.800 194.595 C 344.800 193.739,343.984 192.401,342.700 191.150 C 342.095 190.561,341.600 189.901,341.600 189.682 C 341.600 189.464,341.330 189.182,341.000 189.055 C 340.670 188.929,340.400 188.459,340.400 188.013 C 340.400 187.566,340.220 187.200,340.000 187.200 C 339.780 187.200,339.600 186.919,339.600 186.576 C 339.600 186.233,339.420 186.064,339.200 186.200 C 338.979 186.337,338.800 186.049,338.800 185.557 C 338.800 185.067,338.686 184.781,338.546 184.921 C 338.276 185.190,336.000 182.530,336.000 181.945 C 336.000 181.755,335.730 181.600,335.400 181.600 C 335.067 181.600,334.800 181.244,334.800 180.800 C 334.800 180.267,334.533 180.000,334.000 180.000 C 333.560 180.000,333.200 179.812,333.200 179.583 C 333.200 179.178,325.384 171.203,324.593 170.800 C 324.377 170.690,324.245 170.465,324.300 170.300 C 324.355 170.135,324.029 170.000,323.576 170.000 C 323.123 170.000,322.864 169.820,323.000 169.600 C 323.136 169.380,323.069 169.200,322.851 169.200 C 322.632 169.200,322.332 168.816,322.183 168.347 C 321.989 167.734,321.825 167.637,321.600 168.000 C 321.375 168.363,321.211 168.266,321.017 167.653 C 320.868 167.184,320.478 166.800,320.149 166.800 C 319.821 166.800,319.664 166.620,319.800 166.400 C 319.936 166.180,319.756 166.000,319.400 166.000 C 319.044 166.000,318.856 165.834,318.981 165.630 C 319.107 165.427,318.931 165.202,318.591 165.130 C 318.040 165.014,317.974 162.296,317.992 140.456 L 318.012 115.911 316.706 116.117 C 315.988 116.230,313.874 116.613,312.010 116.968 C 307.902 117.750,301.744 117.498,297.133 116.358 C 293.492 115.458,293.626 115.467,293.379 116.111 M84.400 139.600 C 84.730 139.813,85.270 139.988,85.600 139.988 C 86.133 139.988,86.133 139.945,85.600 139.600 C 85.270 139.387,84.730 139.212,84.400 139.212 C 83.867 139.212,83.867 139.255,84.400 139.600 M87.600 140.400 C 87.930 140.613,88.650 140.773,89.200 140.754 L 90.200 140.720 89.200 140.400 C 87.658 139.906,86.836 139.906,87.600 140.400 " stroke="none" fill="#b4dcfc" fill-rule="evenodd"></path><path id="path2" d="M58.894 11.900 L 59.000 23.800 70.700 23.906 L 82.400 24.012 82.400 35.206 L 82.400 46.400 88.394 46.400 L 94.388 46.400 94.494 35.100 L 94.600 23.800 100.500 23.689 L 106.400 23.579 106.400 34.989 C 106.400 44.865,106.481 46.400,107.000 46.400 C 107.519 46.400,107.600 44.889,107.600 35.200 L 107.600 24.000 118.900 23.953 C 125.115 23.927,130.335 23.927,130.500 23.953 C 130.665 23.979,130.800 18.600,130.800 12.000 L 130.800 0.000 94.794 0.000 L 58.788 0.000 58.894 11.900 M293.200 11.600 L 293.200 23.200 299.400 23.200 L 305.600 23.200 305.600 11.600 L 305.600 0.000 299.400 0.000 L 293.200 0.000 293.200 11.600 M318.177 11.600 C 318.177 18.090,318.232 20.745,318.299 17.500 C 318.366 14.255,318.366 8.945,318.299 5.700 C 318.232 2.455,318.177 5.110,318.177 11.600 M317.906 140.438 C 317.848 153.879,317.935 164.960,318.100 165.062 C 318.265 165.164,318.400 154.167,318.400 140.624 C 318.400 127.081,318.313 116.000,318.206 116.000 C 318.099 116.000,317.964 126.997,317.906 140.438 M82.559 203.853 C 82.719 266.677,82.821 273.708,83.595 275.400 C 83.797 275.840,84.051 277.100,84.159 278.200 C 84.471 281.351,84.864 283.361,85.264 283.861 C 85.501 284.157,85.449 284.396,85.117 284.530 C 84.721 284.688,84.717 284.744,85.100 284.768 C 85.410 284.788,85.600 285.399,85.600 286.376 C 85.600 287.243,85.780 288.064,86.000 288.200 C 86.220 288.336,86.400 289.167,86.400 290.047 C 86.400 291.012,86.559 291.549,86.800 291.400 C 87.038 291.253,87.200 291.721,87.200 292.553 C 87.200 293.323,87.380 294.064,87.600 294.200 C 87.820 294.336,88.000 295.067,88.000 295.824 C 88.000 296.581,88.180 297.200,88.400 297.200 C 88.620 297.200,88.800 297.740,88.800 298.400 C 88.800 299.060,88.980 299.600,89.200 299.600 C 89.420 299.600,89.600 300.140,89.600 300.800 C 89.600 301.460,89.780 302.000,90.000 302.000 C 90.220 302.000,90.400 302.439,90.400 302.976 C 90.400 303.513,90.580 304.064,90.800 304.200 C 91.020 304.336,91.200 304.876,91.200 305.400 C 91.200 305.924,91.380 306.464,91.600 306.600 C 91.820 306.736,92.000 307.276,92.000 307.800 C 92.000 308.324,92.172 308.859,92.383 308.989 C 92.593 309.119,92.664 309.490,92.540 309.813 C 92.416 310.136,92.514 310.400,92.757 310.400 C 93.001 310.400,93.200 310.736,93.200 311.146 C 93.200 311.556,93.573 312.366,94.029 312.946 C 94.600 313.672,94.693 314.002,94.329 314.006 C 93.988 314.010,93.950 314.117,94.221 314.306 C 94.452 314.468,94.967 315.320,95.364 316.200 C 95.762 317.080,96.338 318.323,96.644 318.961 C 96.950 319.600,97.200 320.365,97.200 320.661 C 97.200 320.958,97.380 321.200,97.600 321.200 C 97.820 321.200,98.000 321.571,98.000 322.024 C 98.000 322.477,98.180 322.736,98.400 322.600 C 98.789 322.360,98.962 322.883,98.830 323.900 C 98.794 324.175,98.931 324.400,99.134 324.400 C 99.337 324.400,99.727 324.940,100.000 325.600 C 100.273 326.260,100.655 326.800,100.849 326.800 C 101.042 326.800,101.200 327.160,101.200 327.600 C 101.200 328.040,101.346 328.400,101.525 328.400 C 101.704 328.400,102.099 329.034,102.403 329.809 C 102.707 330.583,103.281 331.511,103.678 331.871 C 104.075 332.230,104.400 332.856,104.400 333.262 C 104.400 333.668,104.580 334.000,104.800 334.000 C 105.020 334.000,105.200 334.242,105.200 334.538 C 105.200 334.834,105.560 335.402,106.000 335.800 C 106.440 336.198,106.800 336.766,106.800 337.062 C 106.800 337.358,106.980 337.600,107.200 337.600 C 107.420 337.600,107.600 337.870,107.600 338.200 C 107.600 338.530,107.780 338.800,108.000 338.800 C 108.220 338.800,108.400 339.027,108.400 339.304 C 108.400 339.581,108.850 340.293,109.400 340.887 C 109.950 341.480,110.400 342.110,110.400 342.286 C 110.400 342.463,110.760 342.832,111.200 343.107 C 111.640 343.382,112.000 343.853,112.000 344.154 C 112.000 344.456,112.274 344.930,112.610 345.208 C 112.945 345.486,113.147 345.786,113.059 345.874 C 112.971 345.962,113.507 346.659,114.250 347.424 C 114.992 348.189,115.600 348.991,115.600 349.207 C 115.600 349.423,115.915 349.614,116.300 349.632 C 116.690 349.649,116.786 349.750,116.516 349.859 C 116.207 349.985,116.496 350.530,117.316 351.372 C 118.022 352.095,118.735 352.612,118.900 352.520 C 119.065 352.428,119.200 352.633,119.200 352.976 C 119.200 353.319,119.380 353.600,119.600 353.600 C 119.820 353.600,120.000 353.801,120.000 354.047 C 120.000 354.429,121.911 356.399,123.671 357.830 C 123.962 358.067,124.560 358.761,125.000 359.374 C 125.985 360.745,128.800 363.752,128.800 363.433 C 128.800 363.305,129.494 363.875,130.341 364.700 C 131.748 366.069,133.631 367.682,136.297 369.800 C 136.850 370.240,137.719 370.986,138.227 371.458 C 138.736 371.929,139.252 372.214,139.376 372.091 C 139.499 371.968,139.600 372.107,139.600 372.400 C 139.600 372.693,139.717 372.817,139.859 372.674 C 140.002 372.531,140.857 373.050,141.759 373.827 C 144.113 375.854,144.318 376.000,144.807 376.000 C 145.049 376.000,145.136 376.180,145.000 376.400 C 144.864 376.620,145.089 376.800,145.501 376.800 C 145.912 376.800,146.636 377.160,147.108 377.600 C 147.580 378.040,148.088 378.400,148.236 378.400 C 148.385 378.400,148.842 378.788,149.253 379.261 C 149.664 379.735,150.000 379.999,150.000 379.847 C 150.000 379.434,151.752 380.435,152.120 381.058 C 152.296 381.356,152.801 381.600,153.243 381.600 C 153.686 381.600,153.936 381.780,153.800 382.000 C 153.664 382.220,153.836 382.400,154.182 382.400 C 154.857 382.400,156.246 383.105,157.087 383.874 C 157.372 384.134,157.964 384.462,158.402 384.601 C 158.841 384.740,159.200 385.022,159.200 385.227 C 159.200 385.432,159.680 385.600,160.267 385.600 C 160.853 385.600,161.216 385.717,161.073 385.861 C 160.807 386.126,162.430 387.108,163.572 387.373 C 165.123 387.732,166.000 388.121,166.000 388.447 C 166.000 388.641,166.360 388.800,166.800 388.800 C 167.240 388.800,167.600 388.980,167.600 389.200 C 167.600 389.420,167.949 389.600,168.376 389.600 C 168.803 389.600,169.272 389.792,169.417 390.027 C 169.562 390.262,169.933 390.358,170.240 390.240 C 170.548 390.122,170.800 390.210,170.800 390.436 C 170.800 390.662,170.980 390.736,171.200 390.600 C 171.420 390.464,171.600 390.527,171.600 390.739 C 171.600 390.951,171.960 391.031,172.400 390.916 C 172.847 390.799,173.200 390.904,173.200 391.153 C 173.200 391.399,173.549 391.600,173.976 391.600 C 174.403 391.600,174.864 391.780,175.000 392.000 C 175.136 392.220,175.687 392.400,176.224 392.400 C 176.761 392.400,177.200 392.580,177.200 392.800 C 177.200 393.020,177.751 393.200,178.424 393.200 C 179.137 393.200,179.544 393.367,179.400 393.600 C 179.253 393.839,179.737 394.000,180.600 394.000 C 181.463 394.000,181.947 394.161,181.800 394.400 C 181.653 394.638,182.121 394.800,182.953 394.800 C 183.723 394.800,184.464 394.980,184.600 395.200 C 184.736 395.420,185.366 395.600,186.000 395.600 C 186.634 395.600,187.264 395.780,187.400 396.000 C 187.536 396.220,188.367 396.400,189.247 396.400 C 190.212 396.400,190.749 396.559,190.600 396.800 C 190.451 397.042,190.996 397.200,191.976 397.200 C 192.869 397.200,193.600 397.363,193.600 397.563 C 193.600 397.763,194.545 398.027,195.700 398.150 C 200.242 398.634,201.819 398.901,202.264 399.262 C 202.519 399.469,207.419 399.748,213.152 399.882 L 223.577 400.126 223.688 388.079 L 223.800 376.032 221.600 375.725 C 220.390 375.556,217.375 375.414,214.900 375.409 C 212.425 375.404,210.400 375.265,210.400 375.100 C 210.400 374.935,209.129 374.800,207.576 374.800 C 205.796 374.800,204.844 374.652,205.000 374.400 C 205.152 374.153,204.471 374.000,203.224 374.000 C 202.111 374.000,201.200 373.820,201.200 373.600 C 201.200 373.380,200.255 373.197,199.100 373.194 C 197.597 373.189,197.170 373.078,197.600 372.800 C 198.040 372.516,197.753 372.411,196.524 372.406 C 195.602 372.403,194.736 372.220,194.600 372.000 C 194.464 371.780,193.733 371.600,192.976 371.600 C 192.219 371.600,191.600 371.420,191.600 371.200 C 191.600 370.980,191.161 370.800,190.624 370.800 C 190.087 370.800,189.536 370.620,189.400 370.400 C 189.264 370.180,188.713 370.000,188.176 370.000 C 187.639 370.000,187.200 369.859,187.200 369.687 C 187.200 369.515,186.705 369.334,186.100 369.284 C 185.495 369.234,184.940 369.015,184.867 368.797 C 184.793 368.578,184.386 368.400,183.961 368.400 C 183.537 368.400,182.877 368.232,182.495 368.026 C 182.113 367.821,181.215 367.417,180.500 367.129 C 179.785 366.840,179.200 366.469,179.200 366.302 C 179.200 366.136,178.660 366.000,178.000 366.000 C 177.340 366.000,176.800 365.820,176.800 365.600 C 176.800 365.380,176.440 365.200,176.000 365.200 C 175.560 365.200,175.200 365.049,175.200 364.864 C 175.200 364.679,174.486 364.292,173.613 364.004 C 172.741 363.716,172.121 363.328,172.237 363.140 C 172.353 362.953,172.077 362.800,171.624 362.800 C 171.171 362.800,170.800 362.641,170.800 362.447 C 170.800 362.252,170.485 361.991,170.100 361.865 C 169.128 361.548,165.177 359.337,164.663 358.823 C 164.430 358.590,163.982 358.400,163.667 358.400 C 163.352 358.400,162.758 358.012,162.347 357.539 C 161.905 357.030,161.600 356.891,161.600 357.200 C 161.600 357.509,161.295 357.370,160.853 356.861 C 160.442 356.388,159.892 356.000,159.629 356.000 C 159.367 356.000,159.281 355.792,159.438 355.538 C 159.605 355.268,159.549 355.184,159.302 355.337 C 159.071 355.480,158.341 355.103,157.681 354.498 C 155.676 352.664,154.809 352.000,154.418 352.000 C 154.213 352.000,153.765 351.600,153.423 351.111 C 153.080 350.622,152.800 350.387,152.800 350.589 C 152.800 350.791,152.191 350.291,151.446 349.478 C 150.701 348.665,149.912 348.000,149.692 348.000 C 149.472 348.000,148.987 347.534,148.614 346.965 C 148.241 346.396,147.847 346.020,147.737 346.129 C 147.628 346.239,146.652 345.447,145.569 344.369 C 144.486 343.292,143.600 342.517,143.600 342.648 C 143.600 342.927,141.900 341.092,140.200 338.980 C 139.540 338.160,138.775 337.257,138.500 336.973 C 138.225 336.689,138.000 336.351,138.000 336.222 C 138.000 336.092,137.415 335.394,136.700 334.670 C 134.933 332.882,134.000 331.673,134.000 331.172 C 134.000 330.941,133.836 330.854,133.635 330.979 C 133.434 331.103,133.030 330.664,132.737 330.002 C 132.444 329.341,132.069 328.800,131.902 328.800 C 131.736 328.800,131.600 328.634,131.600 328.431 C 131.600 328.228,131.105 327.528,130.500 326.875 C 128.889 325.138,128.449 324.544,127.934 323.415 C 127.680 322.857,127.320 322.400,127.136 322.400 C 126.951 322.400,126.800 322.130,126.800 321.800 C 126.800 321.470,126.620 321.200,126.400 321.200 C 126.180 321.200,126.000 320.930,126.000 320.600 C 126.000 320.270,125.820 320.000,125.600 320.000 C 125.380 320.000,125.200 319.662,125.200 319.249 C 125.200 318.836,124.932 318.276,124.604 318.004 C 124.277 317.732,124.098 317.364,124.208 317.187 C 124.318 317.010,124.136 316.593,123.804 316.261 C 123.472 315.929,123.200 315.374,123.200 315.029 C 123.200 314.683,123.041 314.400,122.847 314.400 C 122.652 314.400,122.393 314.085,122.271 313.700 C 122.149 313.315,121.780 312.550,121.451 312.000 C 121.122 311.450,120.617 310.415,120.329 309.700 C 120.041 308.985,119.669 308.400,119.502 308.400 C 119.336 308.400,119.200 308.040,119.200 307.600 C 119.200 307.160,119.020 306.800,118.800 306.800 C 118.580 306.800,118.400 306.440,118.400 306.000 C 118.400 305.560,118.220 305.200,118.000 305.200 C 117.780 305.200,117.600 304.761,117.600 304.224 C 117.600 303.687,117.420 303.136,117.200 303.000 C 116.980 302.864,116.800 302.403,116.800 301.976 C 116.800 301.549,116.620 301.200,116.400 301.200 C 116.180 301.200,116.000 300.851,116.000 300.424 C 116.000 299.997,115.820 299.536,115.600 299.400 C 115.380 299.264,115.200 298.713,115.200 298.176 C 115.200 297.639,115.020 297.200,114.800 297.200 C 114.580 297.200,114.400 296.851,114.400 296.424 C 114.400 295.997,114.220 295.536,114.000 295.400 C 113.780 295.264,113.600 294.623,113.600 293.976 C 113.600 293.329,113.420 292.800,113.200 292.800 C 112.980 292.800,112.800 292.275,112.800 291.633 C 112.800 290.992,112.628 290.407,112.418 290.333 C 112.207 290.260,111.991 289.537,111.937 288.726 C 111.884 287.915,111.696 287.341,111.520 287.449 C 111.248 287.618,111.003 286.050,111.153 285.100 C 111.179 284.935,111.020 284.800,110.800 284.800 C 110.580 284.800,110.400 284.158,110.400 283.374 C 110.400 282.589,110.227 281.625,110.016 281.231 C 109.805 280.836,109.589 279.858,109.535 279.057 C 109.481 278.256,109.293 277.600,109.118 277.600 C 108.943 277.600,108.800 276.799,108.800 275.820 C 108.800 274.841,108.631 273.176,108.423 272.120 C 107.625 268.051,107.572 263.589,107.597 202.364 L 107.623 139.327 106.511 139.455 C 104.236 139.717,102.577 140.066,101.790 140.447 C 100.731 140.959,88.302 140.669,86.200 140.082 C 85.320 139.837,84.104 139.517,83.498 139.371 L 82.395 139.106 82.559 203.853 M241.676 141.899 C 244.468 141.967,249.148 141.968,252.076 141.899 C 255.004 141.831,252.720 141.775,247.000 141.774 C 241.280 141.774,238.884 141.830,241.676 141.899 M265.200 142.835 C 265.200 143.036,265.590 143.200,266.067 143.200 C 266.543 143.200,266.808 143.075,266.655 142.922 C 266.223 142.489,265.200 142.429,265.200 142.835 M219.200 144.491 C 218.430 144.692,217.121 145.054,216.292 145.295 C 215.463 145.536,214.518 145.733,214.192 145.733 C 213.866 145.733,213.600 145.883,213.600 146.067 C 213.600 146.250,213.071 146.400,212.424 146.400 C 211.777 146.400,211.136 146.580,211.000 146.800 C 210.864 147.020,210.223 147.200,209.576 147.200 C 208.929 147.200,208.399 147.335,208.397 147.500 C 208.392 147.947,206.374 148.800,205.320 148.800 C 204.814 148.800,204.400 148.980,204.400 149.200 C 204.400 149.420,203.961 149.600,203.424 149.600 C 202.887 149.600,202.336 149.780,202.200 150.000 C 202.064 150.220,201.603 150.400,201.176 150.400 C 200.749 150.400,200.400 150.580,200.400 150.800 C 200.400 151.020,200.040 151.200,199.600 151.200 C 199.160 151.200,198.800 151.336,198.800 151.502 C 198.800 151.668,197.675 152.238,196.300 152.768 C 194.925 153.298,193.485 154.089,193.100 154.527 C 192.608 155.086,192.398 155.156,192.394 154.761 C 192.390 154.425,192.270 154.360,192.094 154.601 C 191.932 154.821,191.305 155.256,190.700 155.568 C 190.095 155.880,189.600 156.285,189.600 156.468 C 189.600 156.650,189.240 156.800,188.800 156.800 C 188.360 156.800,188.000 156.957,188.000 157.149 C 188.000 157.341,186.743 158.124,185.206 158.888 C 183.669 159.653,182.544 160.420,182.706 160.594 C 182.868 160.768,182.734 160.826,182.409 160.724 C 182.083 160.622,181.464 160.868,181.033 161.270 C 180.602 161.671,180.002 162.000,179.701 162.000 C 179.399 162.000,179.264 162.180,179.400 162.400 C 179.536 162.620,179.386 162.800,179.066 162.800 C 178.746 162.800,177.907 163.340,177.200 164.000 C 176.493 164.660,175.774 165.200,175.600 165.200 C 175.427 165.200,175.172 165.496,175.033 165.857 C 174.895 166.219,174.672 166.405,174.538 166.271 C 174.404 166.138,173.796 166.562,173.187 167.214 C 172.578 167.866,171.941 168.400,171.773 168.400 C 171.424 168.400,171.406 168.415,166.700 172.962 C 164.775 174.822,163.200 176.247,163.200 176.130 C 163.200 175.851,159.878 179.360,158.260 181.347 C 157.567 182.198,156.775 183.130,156.500 183.418 C 156.225 183.707,156.000 184.060,156.000 184.203 C 156.000 184.346,155.280 185.197,154.400 186.095 C 153.520 186.993,152.800 187.880,152.800 188.067 C 152.800 188.254,152.260 188.972,151.600 189.663 C 150.940 190.354,150.400 191.162,150.400 191.459 C 150.400 191.757,150.220 192.000,150.000 192.000 C 149.780 192.000,149.600 192.281,149.600 192.624 C 149.600 192.967,149.420 193.136,149.200 193.000 C 148.980 192.864,148.800 193.033,148.800 193.376 C 148.800 193.719,148.620 194.000,148.400 194.000 C 148.180 194.000,147.994 194.315,147.987 194.700 C 147.971 195.605,147.008 196.875,146.627 196.494 C 146.466 196.332,146.380 196.380,146.436 196.600 C 146.578 197.148,145.551 199.200,145.136 199.200 C 144.951 199.200,144.800 199.470,144.800 199.800 C 144.800 200.130,144.620 200.400,144.400 200.400 C 144.180 200.400,144.000 200.745,144.000 201.167 C 144.000 201.588,143.865 201.993,143.700 202.067 C 143.227 202.277,142.000 204.656,142.000 205.362 C 142.000 205.713,141.809 206.000,141.576 206.000 C 141.343 206.000,141.255 206.165,141.380 206.368 C 141.505 206.570,141.336 207.007,141.004 207.339 C 140.672 207.671,140.400 208.215,140.400 208.548 C 140.400 208.881,140.220 209.264,140.000 209.400 C 139.780 209.536,139.600 209.997,139.600 210.424 C 139.600 210.851,139.420 211.200,139.200 211.200 C 138.980 211.200,138.800 211.560,138.800 212.000 C 138.800 212.440,138.620 212.800,138.400 212.800 C 138.180 212.800,138.000 213.149,138.000 213.576 C 138.000 214.003,137.820 214.464,137.600 214.600 C 137.380 214.736,137.200 215.287,137.200 215.824 C 137.200 216.361,137.020 216.800,136.800 216.800 C 136.580 216.800,136.400 217.340,136.400 218.000 C 136.400 218.660,136.220 219.200,136.000 219.200 C 135.780 219.200,135.600 219.549,135.600 219.976 C 135.600 220.403,135.420 220.864,135.200 221.000 C 134.980 221.136,134.800 221.867,134.800 222.624 C 134.800 223.381,134.620 224.000,134.400 224.000 C 134.180 224.000,134.000 224.439,134.000 224.976 C 134.000 225.513,133.820 226.064,133.600 226.200 C 133.380 226.336,133.200 226.966,133.200 227.600 C 133.200 228.234,133.049 228.846,132.865 228.960 C 132.681 229.073,132.506 229.836,132.475 230.654 C 132.444 231.472,132.235 232.325,132.010 232.550 C 131.784 232.776,131.600 233.543,131.600 234.256 C 131.600 234.969,131.420 235.664,131.200 235.800 C 130.980 235.936,130.800 237.027,130.800 238.224 C 130.800 239.421,130.620 240.400,130.400 240.400 C 130.167 240.400,130.000 241.733,130.000 243.600 C 130.000 245.545,129.837 246.800,129.585 246.800 C 129.059 246.800,129.111 269.898,129.638 270.223 C 129.837 270.347,130.000 271.416,130.000 272.600 C 130.000 273.784,130.180 274.864,130.400 275.000 C 130.620 275.136,130.800 276.036,130.800 277.000 C 130.800 277.964,130.980 278.864,131.200 279.000 C 131.420 279.136,131.600 279.957,131.600 280.824 C 131.600 281.691,131.780 282.400,132.000 282.400 C 132.220 282.400,132.400 283.120,132.400 284.000 C 132.400 284.880,132.580 285.600,132.800 285.600 C 133.020 285.600,133.200 286.140,133.200 286.800 C 133.200 287.460,133.380 288.000,133.600 288.000 C 133.820 288.000,134.000 288.439,134.000 288.976 C 134.000 289.513,134.180 290.064,134.400 290.200 C 134.620 290.336,134.800 290.887,134.800 291.424 C 134.800 291.961,134.980 292.400,135.200 292.400 C 135.420 292.400,135.600 292.636,135.600 292.925 C 135.600 293.214,135.960 294.195,136.400 295.106 C 136.840 296.016,137.200 297.040,137.200 297.381 C 137.200 297.721,137.380 298.000,137.600 298.000 C 137.820 298.000,138.000 298.360,138.000 298.800 C 138.000 299.240,138.180 299.600,138.400 299.600 C 138.620 299.600,138.800 299.872,138.800 300.205 C 138.800 300.792,139.560 302.394,140.032 302.800 C 140.160 302.910,140.519 303.585,140.830 304.300 C 141.141 305.015,141.531 305.600,141.698 305.600 C 141.864 305.600,142.000 305.870,142.000 306.200 C 142.000 306.530,142.174 306.800,142.387 306.800 C 142.601 306.800,142.680 307.047,142.564 307.348 C 142.449 307.650,142.647 308.190,143.006 308.548 C 143.364 308.907,143.534 309.200,143.384 309.200 C 143.234 309.200,143.536 309.574,144.056 310.030 C 144.575 310.487,144.730 310.728,144.400 310.566 C 144.070 310.404,144.205 310.717,144.700 311.261 C 145.195 311.806,145.600 312.495,145.600 312.792 C 145.600 313.090,145.717 313.216,145.861 313.073 C 146.004 312.929,146.341 313.214,146.609 313.706 C 146.877 314.198,147.362 315.092,147.688 315.694 C 148.013 316.296,148.396 316.671,148.539 316.527 C 148.683 316.384,148.800 316.485,148.800 316.752 C 148.800 317.018,149.236 317.672,149.769 318.205 C 150.302 318.738,150.851 319.531,150.989 319.967 C 151.128 320.403,151.592 320.870,152.020 321.006 C 152.449 321.143,152.800 321.428,152.800 321.640 C 152.800 322.200,155.475 324.791,155.760 324.507 C 155.892 324.375,156.000 324.560,156.000 324.919 C 156.000 325.278,156.360 325.765,156.800 326.000 C 157.240 326.235,157.600 326.692,157.600 327.014 C 157.600 327.336,157.781 327.600,158.003 327.600 C 158.224 327.600,159.655 328.839,161.182 330.354 C 162.709 331.869,164.032 333.035,164.122 332.945 C 164.212 332.854,164.514 333.055,164.792 333.390 C 165.070 333.726,165.557 334.000,165.873 334.000 C 166.189 334.000,166.336 334.180,166.200 334.400 C 166.064 334.620,166.190 334.800,166.480 334.800 C 166.770 334.800,167.232 335.160,167.507 335.600 C 167.782 336.040,168.236 336.400,168.515 336.400 C 168.795 336.400,169.283 336.760,169.600 337.200 C 169.917 337.640,170.495 338.000,170.885 338.000 C 171.274 338.000,171.818 338.360,172.093 338.800 C 172.368 339.240,172.909 339.600,173.296 339.600 C 173.683 339.600,174.000 339.791,174.000 340.024 C 174.000 340.257,174.180 340.336,174.400 340.200 C 174.620 340.064,174.800 340.154,174.800 340.400 C 174.800 340.646,174.980 340.736,175.200 340.600 C 175.420 340.464,175.600 340.554,175.600 340.800 C 175.600 341.046,175.780 341.136,176.000 341.000 C 176.220 340.864,176.400 340.943,176.400 341.176 C 176.400 341.409,176.670 341.600,177.000 341.600 C 177.330 341.600,177.600 341.780,177.600 342.000 C 177.600 342.220,177.926 342.400,178.325 342.400 C 178.723 342.400,179.436 342.760,179.908 343.200 C 180.380 343.640,181.044 344.000,181.383 344.000 C 181.722 344.000,182.000 344.180,182.000 344.400 C 182.000 344.620,182.450 344.800,183.000 344.800 C 183.550 344.800,184.000 344.980,184.000 345.200 C 184.000 345.420,184.234 345.600,184.520 345.600 C 185.256 345.600,187.193 346.541,187.197 346.900 C 187.199 347.065,187.652 347.200,188.205 347.200 C 189.201 347.200,190.773 347.890,191.245 348.534 C 191.379 348.718,191.604 348.853,191.745 348.834 C 193.012 348.665,194.403 348.872,194.200 349.200 C 194.060 349.426,194.388 349.600,194.953 349.600 C 195.503 349.600,196.064 349.780,196.200 350.000 C 196.336 350.220,197.077 350.400,197.847 350.400 C 198.617 350.400,199.151 350.556,199.033 350.747 C 198.915 350.938,199.129 351.093,199.509 351.092 C 202.153 351.085,202.974 351.229,202.400 351.600 C 201.970 351.878,202.397 351.989,203.900 351.994 C 205.055 351.997,206.000 352.139,206.000 352.308 C 206.000 352.478,207.114 352.663,208.474 352.721 C 209.835 352.779,211.140 352.983,211.374 353.175 C 211.609 353.368,214.455 353.549,217.700 353.579 L 223.600 353.633 223.600 341.117 L 223.599 328.600 218.719 328.474 C 216.034 328.404,213.649 328.228,213.419 328.082 C 213.189 327.936,212.110 327.766,211.021 327.705 C 209.933 327.643,208.916 327.388,208.762 327.139 C 208.608 326.889,208.115 326.781,207.667 326.898 C 207.219 327.016,206.525 326.888,206.126 326.615 C 205.727 326.341,205.130 326.102,204.800 326.082 C 203.868 326.027,203.047 325.807,202.500 325.465 C 202.225 325.293,201.832 325.256,201.628 325.383 C 201.423 325.509,201.142 325.430,201.004 325.207 C 200.866 324.983,200.437 324.800,200.052 324.800 C 199.666 324.800,198.605 324.440,197.694 324.000 C 196.784 323.560,195.760 323.200,195.419 323.200 C 195.079 323.200,194.800 323.020,194.800 322.800 C 194.800 322.580,194.440 322.400,194.000 322.400 C 193.560 322.400,193.200 322.220,193.200 322.000 C 193.200 321.780,192.840 321.600,192.400 321.600 C 191.960 321.600,191.600 321.420,191.600 321.200 C 191.600 320.980,191.413 320.800,191.184 320.800 C 190.710 320.800,188.269 319.155,188.067 318.700 C 187.993 318.535,187.578 318.400,187.143 318.400 C 186.708 318.400,186.464 318.220,186.600 318.000 C 186.736 317.780,186.567 317.600,186.224 317.600 C 185.881 317.600,185.600 317.441,185.600 317.246 C 185.600 317.051,185.012 316.612,184.294 316.271 C 183.576 315.931,182.554 315.190,182.024 314.626 C 181.494 314.062,180.919 313.600,180.745 313.600 C 180.405 313.600,176.708 310.239,174.659 308.066 C 171.025 304.214,170.000 303.042,170.000 302.735 C 170.000 302.550,169.349 301.785,168.554 301.035 C 167.643 300.175,167.222 299.487,167.416 299.174 C 167.615 298.853,167.560 298.778,167.262 298.962 C 166.992 299.128,166.800 299.001,166.800 298.657 C 166.800 298.332,166.633 298.007,166.430 297.933 C 166.226 297.860,166.001 297.530,165.930 297.200 C 165.858 296.870,165.485 296.309,165.100 295.953 C 164.715 295.597,164.400 295.095,164.400 294.836 C 164.400 294.578,164.069 294.011,163.664 293.577 C 163.259 293.142,162.735 292.385,162.499 291.893 C 162.264 291.402,161.335 289.502,160.436 287.671 C 159.536 285.839,158.800 283.994,158.800 283.571 C 158.800 283.147,158.640 282.800,158.445 282.800 C 158.129 282.800,157.946 282.161,157.470 279.396 C 157.393 278.954,157.113 278.185,156.847 277.688 C 156.581 277.190,156.464 276.620,156.588 276.419 C 156.712 276.219,156.630 275.942,156.407 275.804 C 156.183 275.666,156.000 274.858,156.000 274.010 C 156.000 273.161,155.838 272.407,155.640 272.333 C 155.443 272.260,155.218 271.300,155.140 270.200 C 155.063 269.100,154.853 268.092,154.674 267.960 C 154.221 267.627,154.247 249.445,154.701 248.537 C 154.904 248.132,155.095 246.733,155.125 245.430 C 155.156 244.126,155.320 242.956,155.490 242.830 C 155.661 242.703,155.862 241.970,155.937 241.200 C 156.013 240.430,156.218 239.620,156.393 239.400 C 156.569 239.180,156.679 238.550,156.639 238.000 C 156.599 237.450,156.815 236.603,157.118 236.118 C 157.421 235.632,157.560 235.059,157.427 234.843 C 157.293 234.627,157.548 233.494,157.992 232.325 C 158.436 231.156,158.800 229.795,158.800 229.300 C 158.800 228.805,158.980 228.400,159.200 228.400 C 159.420 228.400,159.600 227.939,159.600 227.376 C 159.600 226.813,159.742 226.440,159.915 226.548 C 160.088 226.655,160.269 226.270,160.317 225.694 C 160.365 225.117,160.558 224.545,160.746 224.422 C 160.933 224.300,161.329 223.525,161.624 222.700 C 161.919 221.875,162.305 221.200,162.480 221.200 C 162.656 221.200,162.800 220.955,162.800 220.656 C 162.800 219.889,165.264 215.200,165.667 215.200 C 165.850 215.200,166.000 214.840,166.000 214.400 C 166.000 213.960,166.180 213.600,166.400 213.600 C 166.620 213.600,166.800 213.240,166.800 212.800 C 166.800 212.360,166.991 212.000,167.224 212.000 C 167.457 212.000,167.548 211.839,167.426 211.642 C 167.304 211.445,167.474 211.181,167.802 211.054 C 168.131 210.928,168.400 210.549,168.400 210.213 C 168.400 209.876,168.580 209.600,168.800 209.600 C 169.020 209.600,169.200 209.364,169.200 209.075 C 169.200 208.787,169.515 208.196,169.900 207.762 C 171.641 205.798,173.297 203.486,172.775 203.748 C 172.459 203.907,172.605 203.737,173.100 203.370 C 173.595 203.003,174.000 202.474,174.000 202.194 C 174.000 201.914,174.270 201.582,174.600 201.455 C 174.930 201.329,175.200 200.939,175.200 200.589 C 175.200 200.239,175.367 200.056,175.571 200.182 C 175.775 200.308,176.063 200.033,176.210 199.569 C 176.460 198.782,185.200 189.745,185.200 190.274 C 185.200 190.408,185.645 190.036,186.190 189.449 C 186.734 188.862,187.233 188.430,187.300 188.490 C 187.446 188.624,188.460 187.788,190.026 186.241 C 190.672 185.603,191.200 185.226,191.200 185.402 C 191.200 185.578,191.536 185.335,191.947 184.861 C 192.358 184.388,192.864 184.000,193.071 184.000 C 193.279 184.000,193.805 183.685,194.240 183.300 C 195.842 181.881,197.587 180.800,198.284 180.794 C 198.893 180.789,198.910 180.730,198.400 180.400 C 197.915 180.086,197.972 180.011,198.700 180.006 C 199.195 180.003,199.600 179.820,199.600 179.600 C 199.600 179.380,199.960 179.200,200.400 179.200 C 200.840 179.200,201.200 179.020,201.200 178.800 C 201.200 178.580,201.560 178.400,202.000 178.400 C 202.440 178.400,202.800 178.220,202.800 178.000 C 202.800 177.780,203.070 177.600,203.400 177.600 C 203.730 177.600,204.000 177.454,204.000 177.275 C 204.000 177.096,204.622 176.705,205.382 176.407 C 206.142 176.109,206.695 175.753,206.611 175.617 C 206.527 175.481,206.911 175.332,207.465 175.286 C 208.018 175.241,208.950 174.954,209.536 174.650 C 211.958 173.392,214.879 172.242,215.363 172.357 C 215.563 172.404,215.843 172.254,215.986 172.023 C 216.128 171.793,216.717 171.565,217.294 171.517 C 217.870 171.469,218.255 171.288,218.148 171.115 C 217.978 170.840,219.598 170.601,220.530 170.763 C 220.711 170.794,220.745 170.635,220.606 170.410 C 220.373 170.033,221.030 169.885,222.905 169.894 C 223.567 169.896,223.604 169.097,223.505 157.048 L 223.400 144.200 222.000 144.163 C 221.230 144.142,219.970 144.290,219.200 144.491 M288.800 149.235 C 288.800 149.436,289.190 149.600,289.667 149.600 C 290.143 149.600,290.408 149.475,290.255 149.322 C 289.823 148.889,288.800 148.829,288.800 149.235 M246.237 166.341 C 246.138 166.500,246.495 166.666,247.029 166.711 C 247.563 166.755,248.000 166.651,248.000 166.481 C 248.000 166.081,246.472 165.959,246.237 166.341 M229.000 167.987 C 228.351 168.256,228.445 168.315,229.500 168.298 C 230.215 168.287,230.800 168.126,230.800 167.939 C 230.800 167.525,230.070 167.544,229.000 167.987 M322.250 168.587 C 322.380 168.924,322.657 169.200,322.866 169.200 C 323.076 169.200,323.136 169.380,323.000 169.600 C 322.864 169.820,323.033 170.000,323.376 170.000 C 324.269 170.000,324.126 169.510,322.995 168.687 C 322.198 168.107,322.059 168.089,322.250 168.587 M278.400 171.913 C 278.400 172.085,278.895 172.253,279.500 172.287 C 280.449 172.339,280.490 172.300,279.800 172.002 C 278.758 171.552,278.400 171.529,278.400 171.913 M284.223 174.167 C 285.061 174.780,285.440 174.713,285.016 174.027 C 284.871 173.792,284.459 173.600,284.100 173.600 C 283.554 173.600,283.574 173.693,284.223 174.167 M340.492 188.475 C 340.579 188.736,340.864 189.021,341.125 189.108 C 341.418 189.206,341.507 189.023,341.357 188.633 C 341.078 187.906,340.252 187.755,340.492 188.475 M346.409 197.025 C 346.423 197.624,347.981 199.455,347.991 198.883 C 347.996 198.599,347.640 197.980,347.200 197.508 C 346.760 197.036,346.404 196.818,346.409 197.025 M317.967 229.876 C 317.949 246.114,317.852 259.899,317.752 260.509 C 317.652 261.119,317.750 261.929,317.970 262.309 C 318.240 262.775,318.408 252.865,318.485 231.862 C 318.548 214.736,318.465 200.640,318.300 200.538 C 318.135 200.436,317.985 213.638,317.967 229.876 M349.200 201.278 C 349.200 201.405,349.469 202.024,349.798 202.654 C 350.126 203.284,350.390 203.530,350.385 203.200 C 350.379 202.870,350.110 202.251,349.787 201.824 C 349.464 201.396,349.200 201.151,349.200 201.278 M355.206 214.033 C 355.209 214.345,355.390 214.870,355.607 215.200 C 355.921 215.676,355.977 215.616,355.878 214.910 C 355.735 213.887,355.197 213.184,355.206 214.033 M327.600 214.600 C 327.600 214.930,327.768 215.200,327.973 215.200 C 328.178 215.200,328.465 215.574,328.610 216.030 C 328.754 216.487,328.960 216.773,329.066 216.667 C 329.276 216.458,328.100 214.000,327.790 214.000 C 327.685 214.000,327.600 214.270,327.600 214.600 M336.508 237.172 C 336.540 237.597,336.709 237.856,336.883 237.749 C 337.327 237.475,337.280 236.400,336.825 236.400 C 336.619 236.400,336.476 236.748,336.508 237.172 M362.160 238.200 C 362.160 238.722,362.304 239.059,362.480 238.951 C 362.656 238.842,362.800 238.504,362.800 238.200 C 362.800 237.896,362.656 237.558,362.480 237.449 C 362.304 237.341,362.160 237.678,362.160 238.200 M339.673 260.321 C 339.726 261.024,339.915 261.600,340.093 261.600 C 340.270 261.600,340.296 261.105,340.151 260.500 C 339.772 258.919,339.560 258.840,339.673 260.321 M339.867 262.267 C 339.469 262.665,339.545 263.600,339.975 263.600 C 340.181 263.600,340.323 263.240,340.290 262.800 C 340.222 261.896,340.229 261.905,339.867 262.267 M316.909 271.591 C 316.943 272.036,317.112 272.400,317.285 272.400 C 317.727 272.400,317.679 271.296,317.224 271.015 C 317.018 270.887,316.876 271.147,316.909 271.591 M316.276 276.147 C 316.103 276.778,316.060 277.393,316.181 277.514 C 316.598 277.931,316.860 277.269,316.725 276.137 L 316.590 275.000 316.276 276.147 M337.200 283.000 C 337.200 283.330,337.380 283.600,337.600 283.600 C 337.820 283.600,338.000 283.330,338.000 283.000 C 338.000 282.670,337.820 282.400,337.600 282.400 C 337.380 282.400,337.200 282.670,337.200 283.000 M313.169 287.900 C 313.153 288.065,313.078 288.515,313.005 288.900 C 312.931 289.285,313.035 289.600,313.235 289.600 C 313.436 289.600,313.600 289.150,313.600 288.600 C 313.600 287.711,313.247 287.137,313.169 287.900 M277.800 302.315 C 276.548 303.939,276.322 304.400,276.780 304.400 C 277.011 304.400,277.200 304.130,277.200 303.800 C 277.200 303.470,277.374 303.200,277.586 303.200 C 277.977 303.200,278.976 301.637,278.732 301.405 C 278.660 301.335,278.240 301.745,277.800 302.315 M270.834 310.153 L 269.869 311.400 271.013 310.312 C 271.643 309.714,272.077 309.153,271.979 309.065 C 271.880 308.977,271.365 309.467,270.834 310.153 M352.617 316.630 C 352.117 317.394,352.046 317.806,352.363 318.123 C 352.679 318.439,352.800 318.339,352.800 317.760 C 352.800 317.320,353.013 316.747,353.273 316.487 C 353.534 316.226,353.648 315.915,353.528 315.794 C 353.407 315.674,352.997 316.050,352.617 316.630 M259.585 318.818 L 258.200 320.035 259.695 319.118 C 260.517 318.613,261.192 318.065,261.195 317.900 C 261.203 317.437,261.069 317.513,259.585 318.818 M294.880 320.880 C 294.616 321.144,294.400 321.498,294.400 321.667 C 294.400 322.165,295.518 321.590,295.757 320.969 C 296.023 320.275,295.535 320.225,294.880 320.880 M241.200 326.376 C 241.200 326.583,241.408 326.881,241.662 327.038 C 241.936 327.208,242.015 327.149,241.857 326.892 C 241.710 326.655,241.907 326.378,242.295 326.277 C 242.832 326.137,242.785 326.082,242.100 326.046 C 241.605 326.021,241.200 326.169,241.200 326.376 M237.384 327.362 C 236.665 327.888,236.686 327.911,237.708 327.716 C 238.308 327.601,238.800 327.348,238.800 327.153 C 238.800 326.640,238.263 326.719,237.384 327.362 M288.477 327.626 C 287.909 328.535,288.212 328.645,289.032 327.826 C 289.348 327.510,289.461 327.161,289.283 327.051 C 289.105 326.942,288.743 327.200,288.477 327.626 M233.400 328.000 C 233.108 328.473,233.499 328.473,234.600 328.000 C 235.371 327.669,235.369 327.655,234.524 327.628 C 234.042 327.613,233.536 327.780,233.400 328.000 M224.241 328.867 C 224.355 329.050,224.977 329.200,225.624 329.200 C 226.271 329.200,226.800 329.050,226.800 328.867 C 226.800 328.683,226.178 328.533,225.418 328.533 C 224.657 328.533,224.128 328.683,224.241 328.867 M286.877 329.226 C 286.309 330.135,286.612 330.245,287.432 329.426 C 287.748 329.110,287.861 328.761,287.683 328.651 C 287.505 328.542,287.143 328.800,286.877 329.226 M316.412 329.184 C 316.088 329.389,315.944 329.678,316.093 329.826 C 316.241 329.974,316.653 329.804,317.010 329.448 C 317.713 328.744,317.357 328.587,316.412 329.184 M285.212 330.784 C 284.888 330.989,284.744 331.278,284.893 331.426 C 285.041 331.574,285.453 331.404,285.810 331.048 C 286.513 330.344,286.157 330.187,285.212 330.784 M341.244 337.064 C 340.614 338.446,340.926 338.678,341.741 337.433 C 342.099 336.888,342.239 336.348,342.054 336.233 C 341.869 336.119,341.504 336.493,341.244 337.064 M305.717 341.807 C 305.011 342.518,304.522 343.189,304.630 343.297 C 304.813 343.480,307.600 340.912,307.600 340.560 C 307.600 340.153,306.892 340.622,305.717 341.807 M269.476 341.374 C 269.078 341.676,268.898 342.007,269.076 342.110 C 269.254 342.213,269.746 341.961,270.170 341.549 C 271.057 340.686,270.552 340.559,269.476 341.374 M296.982 349.342 C 296.413 349.966,295.917 350.800,296.115 350.800 C 296.551 350.800,297.998 349.247,297.720 349.078 C 297.544 348.971,297.212 349.090,296.982 349.342 M332.087 349.609 C 331.619 350.359,331.641 350.381,332.391 349.913 C 332.836 349.635,333.200 349.271,333.200 349.104 C 333.200 348.526,332.591 348.803,332.087 349.609 M329.200 352.856 C 329.200 353.107,328.885 353.542,328.501 353.823 C 328.116 354.104,327.918 354.451,328.060 354.594 C 328.337 354.871,330.000 353.268,330.000 352.725 C 330.000 352.546,329.820 352.400,329.600 352.400 C 329.380 352.400,329.200 352.605,329.200 352.856 M292.400 353.066 C 292.400 353.285,291.956 353.702,291.414 353.993 C 290.871 354.283,290.521 354.672,290.635 354.857 C 290.749 355.042,291.319 354.751,291.902 354.210 C 292.485 353.670,292.835 353.102,292.681 352.947 C 292.526 352.793,292.400 352.846,292.400 353.066 M321.300 360.998 C 320.731 361.645,320.661 362.000,321.104 362.000 C 321.271 362.000,321.632 361.640,321.907 361.200 C 322.478 360.287,322.051 360.145,321.300 360.998 M227.200 375.610 C 226.774 375.892,227.160 375.959,228.530 375.841 C 229.591 375.749,230.566 375.567,230.696 375.437 C 231.104 375.029,227.832 375.191,227.200 375.610 " stroke="none" fill="#d4ebfc" fill-rule="evenodd"></path><path id="path3" d="M299.525 23.499 C 302.893 23.566,308.293 23.566,311.525 23.499 C 314.756 23.432,312.000 23.377,305.400 23.377 C 298.800 23.377,296.156 23.432,299.525 23.499 M293.553 115.472 C 293.220 115.883,293.192 116.039,293.483 115.864 C 293.748 115.705,295.398 115.940,297.149 116.387 C 298.901 116.834,301.293 117.177,302.467 117.149 L 304.600 117.099 302.000 116.776 C 298.754 116.372,295.142 115.573,294.553 115.128 C 294.283 114.924,293.887 115.060,293.553 115.472 M314.400 116.030 C 313.850 116.219,312.680 116.493,311.800 116.638 C 310.920 116.784,310.436 116.988,310.724 117.092 C 311.012 117.197,312.542 116.997,314.124 116.648 C 315.706 116.299,317.360 115.941,317.800 115.853 C 318.240 115.765,317.880 115.691,317.000 115.689 C 316.120 115.687,314.950 115.840,314.400 116.030 M306.500 117.487 C 307.105 117.578,308.095 117.578,308.700 117.487 C 309.305 117.395,308.810 117.320,307.600 117.320 C 306.390 117.320,305.895 117.395,306.500 117.487 M82.626 138.758 C 82.504 138.955,83.078 139.206,83.902 139.315 C 84.726 139.424,86.660 139.803,88.200 140.157 C 91.051 140.812,99.509 141.017,100.904 140.465 C 101.290 140.312,99.584 140.256,97.110 140.341 C 92.658 140.493,88.845 140.059,85.027 138.965 C 82.692 138.296,82.900 138.314,82.626 138.758 M103.000 139.600 L 101.800 139.905 103.076 139.953 C 103.778 139.979,104.464 139.820,104.600 139.600 C 104.874 139.157,104.740 139.157,103.000 139.600 " stroke="none" fill="#8ca4b4" fill-rule="evenodd"></path><path id="path4" d="M270.009 55.880 C 270.025 76.664,270.178 88.732,270.428 89.033 C 270.644 89.294,270.845 90.151,270.875 90.937 C 270.904 91.724,271.080 92.274,271.264 92.160 C 271.449 92.046,271.600 92.416,271.600 92.982 C 271.600 93.548,271.760 94.323,271.956 94.705 C 272.152 95.087,272.736 96.300,273.254 97.400 C 273.772 98.500,274.410 99.626,274.672 99.902 C 274.933 100.179,275.276 100.808,275.432 101.301 C 275.588 101.794,276.005 102.436,276.358 102.728 C 276.861 103.144,276.870 103.203,276.400 102.999 C 276.070 102.856,276.250 103.137,276.800 103.622 C 277.350 104.108,277.757 104.657,277.704 104.841 C 277.651 105.025,278.011 105.391,278.504 105.653 C 279.575 106.224,280.405 107.268,280.135 107.705 C 280.028 107.878,280.089 107.970,280.270 107.910 C 280.586 107.805,281.006 108.121,283.380 110.253 C 283.970 110.782,284.651 111.092,284.894 110.942 C 285.173 110.770,285.248 110.898,285.097 111.290 C 284.927 111.733,285.167 111.973,285.933 112.127 C 286.524 112.245,287.546 112.804,288.204 113.370 C 288.862 113.936,289.816 114.399,290.324 114.400 C 290.832 114.400,291.148 114.560,291.028 114.755 C 290.734 115.230,293.282 115.600,293.830 115.163 C 294.066 114.974,294.426 114.962,294.630 115.137 C 296.134 116.426,308.783 117.724,311.000 116.816 C 311.454 116.631,310.372 116.581,308.500 116.702 L 305.200 116.914 305.200 70.321 L 305.200 23.727 296.500 23.465 C 291.715 23.320,283.791 23.202,278.892 23.201 L 269.984 23.200 270.009 55.880 M88.500 47.099 C 91.745 47.166,97.055 47.166,100.300 47.099 C 103.545 47.032,100.890 46.977,94.400 46.977 C 87.910 46.977,85.255 47.032,88.500 47.099 M58.822 90.527 C 58.881 109.620,58.983 112.581,59.566 112.221 C 59.717 112.128,59.822 112.760,59.799 113.626 C 59.777 114.492,59.913 115.200,60.103 115.200 C 60.292 115.200,60.356 115.347,60.245 115.527 C 60.134 115.707,60.483 116.805,61.021 117.967 C 61.560 119.129,62.000 120.332,62.000 120.640 C 62.000 120.948,62.180 121.200,62.400 121.200 C 62.620 121.200,62.800 121.650,62.800 122.200 C 62.800 122.750,62.980 123.200,63.200 123.200 C 63.420 123.200,63.600 123.388,63.600 123.617 C 63.600 123.846,63.783 124.251,64.007 124.517 C 65.519 126.310,66.000 126.955,66.000 127.194 C 66.000 127.343,66.453 127.707,67.008 128.004 C 67.740 128.396,67.876 128.631,67.508 128.866 C 67.143 129.097,67.203 129.189,67.724 129.194 C 68.122 129.197,68.346 129.364,68.223 129.564 C 68.099 129.763,68.528 130.373,69.177 130.919 C 69.825 131.465,70.246 132.021,70.111 132.156 C 69.977 132.290,70.167 132.400,70.533 132.400 C 70.900 132.400,71.200 132.580,71.200 132.800 C 71.200 133.020,71.470 133.200,71.800 133.200 C 72.130 133.200,72.400 133.368,72.400 133.573 C 72.400 133.778,72.760 134.060,73.200 134.200 C 73.640 134.340,74.000 134.722,74.000 135.051 C 74.000 135.379,74.165 135.545,74.368 135.420 C 74.570 135.295,75.019 135.476,75.365 135.822 C 75.711 136.168,76.156 136.351,76.355 136.228 C 76.554 136.105,76.819 136.274,76.946 136.602 C 77.072 136.931,77.451 137.200,77.787 137.200 C 78.124 137.200,78.400 137.374,78.400 137.587 C 78.400 137.801,78.668 137.872,78.997 137.746 C 79.337 137.615,79.699 137.792,79.839 138.158 C 79.975 138.511,80.516 138.800,81.043 138.800 C 81.569 138.800,82.000 139.014,82.000 139.276 C 82.000 139.539,82.225 139.447,82.500 139.074 C 82.918 138.507,83.230 138.463,84.400 138.811 C 86.649 139.479,91.688 140.400,93.100 140.400 L 94.400 140.400 94.400 105.600 L 94.400 70.800 76.581 70.800 L 58.761 70.800 58.822 90.527 M316.305 115.483 C 316.802 115.579,317.522 115.575,317.905 115.475 C 318.287 115.375,317.880 115.296,317.000 115.301 C 316.120 115.305,315.807 115.387,316.305 115.483 M313.400 116.000 C 312.293 116.282,312.277 116.309,313.200 116.347 C 313.750 116.369,314.470 116.213,314.800 116.000 C 315.481 115.560,315.129 115.560,313.400 116.000 M99.400 140.000 L 98.600 140.344 99.400 140.332 C 99.840 140.326,100.650 140.176,101.200 140.000 L 102.200 139.680 101.200 139.668 C 100.650 139.662,99.840 139.811,99.400 140.000 " stroke="none" fill="#5c747c" fill-rule="evenodd"></path></g></svg>